<?xml version="1.0" encoding="UTF-8" standalone="no"?>
<!-- Created with Inkscape (http://www.inkscape.org/) -->

<svg
   xmlns:dc="http://purl.org/dc/elements/1.1/"
   xmlns:cc="http://creativecommons.org/ns#"
   xmlns:rdf="http://www.w3.org/1999/02/22-rdf-syntax-ns#"
   xmlns:svg="http://www.w3.org/2000/svg"
   xmlns="http://www.w3.org/2000/svg"
   xmlns:xlink="http://www.w3.org/1999/xlink"
   version="1.1"
   width="25"
   height="25"
   id="svg7723">
  <defs
     id="defs7725">
    <linearGradient
       id="linearGradient3761">
      <stop
         id="stop3763"
         style="stop-color:#f7931a;stop-opacity:1"
         offset="0" />
      <stop
         id="stop3765"
         style="stop-color:#c16c07;stop-opacity:1"
         offset="1" />
    </linearGradient>
    <linearGradient
       x1="8"
       y1="-1.9999504"
       x2="8"
       y2="23.00005"
       id="linearGradient3767"
       xlink:href="#linearGradient3761"
       gradientUnits="userSpaceOnUse"
       gradientTransform="translate(5.2833467,1.999975)" />
  </defs>
  <metadata
     id="metadata7728">
    <rdf:RDF>
      <cc:Work
         rdf:about="">
        <dc:format>image/svg+xml</dc:format>
        <dc:type
           rdf:resource="http://purl.org/dc/dcmitype/StillImage" />
        <dc:title></dc:title>
      </cc:Work>
    </rdf:RDF>
  </metadata>
  <rect
     width="25"
     height="25"
     rx="5"
     ry="5"
     x="0"
     y="0"
     id="rect2985"
     style="fill:url(#linearGradient3767);fill-opacity:1;stroke:none" />
  <g
     transform="translate(5.2833465,1.999975)"
     id="g3757">
    <path
       d="m 3.71875,1e-4 0,3.03125 -3.71875,0 0,1.96875 c 0,0 1.33513,-0.0255 1.3125,0 0.74701,5.1e-4 0.99177,0.43827 1.0625,0.8125 l 0,8.28125 c -0.0328,0.23509 -0.16558,0.6241 -0.6875,0.625 0.0237,0.021 -1.34375,0 -1.34375,0 L 0,16.90635 l 3.71875,0.0312 0,3.0625 1.84375,0 0,-3.03125 1.46875,0 0,3.03125 1.84375,0 0,-3.0625 c 3.10058,-0.17787 5.26175,-0.96334 5.53125,-3.875 C 14.62384,10.71802 13.51005,9.67271 11.75,9.25005 12.81927,8.70557 13.50009,7.75465 13.34375,6.1563 13.13376,3.97195 11.25563,3.23989 8.875,3.0313 l 0,-3.03125 -1.84375,0 0,2.9375 L 5.5625,2.96875 5.5625,0 3.71875,0 z m 1.875,5.125 C 6.63487,5.12561 9.90603,4.79577 9.90625,6.96885 9.90574,9.0523 6.63487,8.81253 5.59375,8.8126 l 0,-3.6875 z m 0,5.53125 c 1.25027,3.2e-4 5.15643,-0.35729 5.15625,2.03125 10e-4,2.29004 -3.90635,2.03007 -5.15625,2.03125 l 0,-4.0625 z"
       id="path2988"
       style="opacity:0.5;fill:#000000" />
    <path
       d="m 3.71875,1.00005 0,3.03125 -3.71875,0 0,1.96875 c 0,0 1.33513,-0.02549 1.3125,0 0.74701,5.1e-4 0.99177,0.43827 1.0625,0.8125 l 0,8.28125 c -0.0328,0.23509 -0.16558,0.6241 -0.6875,0.625 0.0237,0.021 -1.34375,0 -1.34375,0 L 0,17.9063 l 3.71875,0.03125 0,3.0625 1.84375,0 0,-3.03125 1.46875,0 0,3.03125 1.84375,0 0,-3.0625 c 3.10058,-0.17787 5.26175,-0.96334 5.53125,-3.875 C 14.62384,11.71802 13.51005,10.67271 11.75,10.25005 12.81927,9.70557 13.50009,8.75465 13.34375,7.1563 13.13376,4.97195 11.25563,4.23989 8.875,4.0313 l 0,-3.03125 -1.84375,0 0,2.9375 -1.46875,0.03125 0,-2.96875 -1.84375,0 z m 1.875,5.125 c 1.04112,5.1e-4 4.31228,-0.32933 4.3125,1.84375 -5.1e-4,2.08345 -3.27138,1.84368 -4.3125,1.84375 l 0,-3.6875 z m 0,5.53125 c 1.25027,3.2e-4 5.15643,-0.35729 5.15625,2.03125 10e-4,2.29004 -3.90635,2.03007 -5.15625,2.03125 l 0,-4.0625 z"
       id="path109"
       style="fill:#ffffff" />
  </g>
</svg>
